<?xml version="1.0" encoding="UTF-8"?>
<svg version="1.1" xmlns="http://www.w3.org/2000/svg" width="1080" height="1080">
<path d="M0 0 C356.4 0 712.8 0 1080 0 C1080 356.4 1080 712.8 1080 1080 C723.6 1080 367.2 1080 0 1080 C0 723.6 0 367.2 0 0 Z " fill="#FEFEFE" transform="translate(0,0)"/>
<path d="M0 0 C4.68466862 0.00460731 9.36907609 -0.00221775 14.05371094 -0.02050781 C141.66006921 -0.5136741 141.66006921 -0.5136741 161.35229492 16.55004883 C166.93973363 22.52055071 169.37893018 27.5339368 169.62963867 35.81567383 C169.22862401 44.46364209 167.68363614 51.14082796 161.31713867 57.25317383 C153.9413504 63.68132335 144.73669148 63.76382113 135.44213867 63.62817383 C134.39606445 63.63139648 133.34999023 63.63461914 132.2722168 63.63793945 C123.73886776 63.58295009 115.3086618 62.86954373 106.8132782 62.12240601 C93.97793628 61.0159142 81.1204489 60.38817426 68.25463867 59.75317383 C66.33619644 59.65653946 66.33619644 59.65653946 64.3789978 59.55795288 C43.59333914 58.51340913 22.81300586 57.70391364 2.00463867 57.31567383 C-1.19857667 72.7728002 -4.10733986 88.26183715 -6.76342773 103.82104492 C-8.00752693 111.05507489 -9.37458796 118.2445086 -10.91723633 125.42114258 C-13.25530641 136.32083688 -15.2277761 147.27930946 -17.18286133 158.25317383 C-17.56962137 160.41366278 -17.9564224 162.57414439 -18.34326172 164.73461914 C-21.25042323 181.00391583 -24.10396519 197.28260319 -26.93286133 213.56567383 C-27.12399506 214.66273651 -27.31512878 215.75979919 -27.51205444 216.8901062 C-30.18428185 232.23514595 -30.18428185 232.23514595 -32.48730469 247.63891602 C-33.14238003 252.37963425 -33.84507432 257.11282193 -34.54614258 261.84692383 C-36.38889116 274.33271234 -38.20450912 286.82233546 -39.99536133 299.31567383 C-40.12293823 300.20536865 -40.25051514 301.09506348 -40.38195801 302.01171875 C-41.17002971 307.52689349 -41.93897055 313.04436276 -42.68286133 318.56567383 C-42.83374207 319.6834874 -42.83374207 319.6834874 -42.9876709 320.82388306 C-44.24021188 330.21908096 -45.24126043 339.617919 -46.05004883 349.06176758 C-46.13593765 350.05711517 -46.22182648 351.05246277 -46.31031799 352.07797241 C-46.72469743 356.9300192 -47.11760068 361.7824553 -47.4765625 366.63891602 C-48.39811664 378.43801096 -49.36107967 389.6274416 -57.94458008 398.59692383 C-68.24167342 407.22686872 -81.03249824 408.16444072 -93.86743164 407.51098633 C-101.69998143 406.792074 -108.92542805 403.38025341 -113.99536133 397.31567383 C-124.09045159 381.04621644 -118.51415685 358.38051528 -116.05786133 340.50317383 C-115.74599586 338.1629579 -115.43439708 335.82270641 -115.12304688 333.48242188 C-112.04073712 310.61603835 -108.34226875 287.85031308 -104.57667542 265.08836365 C-102.9085321 254.93100052 -101.39953662 244.75185958 -99.9140625 234.56640625 C-98.46203809 224.63449886 -96.92588093 214.71804313 -95.26098633 204.81958008 C-95.10251724 203.87578995 -94.94404816 202.93199982 -94.78077698 201.95960999 C-94.27102672 198.93211297 -93.75876687 195.90505305 -93.24536133 192.87817383 C-93.06895111 191.83788025 -92.89254089 190.79758667 -92.71078491 189.72576904 C-89.96648657 173.59010618 -86.98962998 157.53191253 -83.65698242 141.5065918 C-82.62100473 136.51019755 -81.61995527 131.50695273 -80.62036133 126.50317383 C-80.42692139 125.53871338 -80.23348145 124.57425293 -80.03417969 123.58056641 C-78.67222956 116.76973785 -77.33728335 109.95382688 -76.01098633 103.13598633 C-75.83534149 102.23348648 -75.65969666 101.33098663 -75.47872925 100.40113831 C-74.60022989 95.88565763 -73.72347371 91.36984833 -72.84936523 86.85351562 C-70.99939895 77.31716796 -69.08079191 67.80389343 -66.99536133 58.31567383 C-126.64181688 58.60800622 -126.64181688 58.60800622 -178.38598633 83.40161133 C-187.42016731 94.14614696 -188.97206591 105.33422277 -188.24243164 118.89282227 C-187.42709255 126.8883016 -184.31056943 134.35047184 -180.18286133 141.19067383 C-177.56037021 145.58355327 -177.14672073 149.29057724 -177.99536133 154.31567383 C-180.86360441 162.7516829 -187.44146564 167.33873591 -195.12036133 171.19067383 C-202.44769087 174.76615411 -209.92792119 176.92824396 -218.03833008 174.77270508 C-230.07535231 169.65516868 -236.25680211 156.74148968 -240.99536133 145.31567383 C-245.03815214 134.43752861 -246.16554538 124.44754453 -246.12036133 112.94067383 C-246.12422852 111.96356445 -246.1280957 110.98645508 -246.13208008 109.97973633 C-246.10279119 87.95449361 -239.83771953 69.00251926 -224.99536133 52.31567383 C-224.1078418 51.3044043 -224.1078418 51.3044043 -223.20239258 50.27270508 C-188.4392524 13.13766621 -126.76820216 6.14822292 -78.99536133 2.31567383 C-77.95489655 2.23058563 -76.91443176 2.14549744 -75.84243774 2.05783081 C-50.57585368 0.0684848 -25.33250956 -0.0270596 0 0 Z " fill="#CB6CE6" transform="translate(513.995361328125,297.684326171875)"/>
<path d="M0 0 C0.88816406 0.350625 1.77632812 0.70125 2.69140625 1.0625 C14.30763625 6.17009426 22.27727764 16.5022356 27.28515625 27.93359375 C32.50076481 41.71102568 33.46567928 59.13641007 28 73 C27.70996094 73.77214844 27.41992188 74.54429687 27.12109375 75.33984375 C23.18247213 84.98040295 17.9559284 92.40162659 9 97.8125 C2.57263937 100.3288045 -5.96263693 100.27467275 -12.2578125 97.6328125 C-16.41747846 95.15597437 -19.45022172 92.64933483 -21 88 C-21.43850392 81.51520169 -21.68244071 75.18701351 -19.5 69 C-17.19257668 62.29959768 -16.54559285 54.60562265 -18.703125 47.7734375 C-19.82454928 45.75679119 -19.82454928 45.75679119 -23 44 C-29.41763298 42.85826903 -35.48948836 43.32020734 -41.13671875 46.6875 C-56.36081531 57.41139191 -64.67060591 75.99566116 -68 94 C-69.12987235 101.09385521 -69.22089924 108.01779934 -69.25 115.1875 C-69.270625 116.43853516 -69.29125 117.68957031 -69.3125 118.97851562 C-69.37078646 132.97455137 -66.45281293 148.39624398 -56.25 158.78125 C-44.32811644 169.77173641 -31.94640073 170.65189006 -16.3203125 170.37109375 C-8.2153768 170.03328792 -1.38330712 168.25917488 6 165 C6.64163086 164.72655762 7.28326172 164.45311523 7.94433594 164.17138672 C30.25380697 154.47614931 47.92132872 138.22835263 63.90283203 120.24121094 C68.03174414 115.68208431 71.68956862 112.48277124 78 111.5625 C82.01753269 112.14839018 83.93196266 113.33214144 87 116 C91.01531963 121.77245096 91.57287871 127.12631838 91.375 134 C91.37306641 135.27617188 91.37306641 135.27617188 91.37109375 136.578125 C91.16511702 151.49999497 85.04895014 161.39789664 75 172 C74.13411583 173.05297272 73.27761819 174.11385743 72.4375 175.1875 C69.24962945 178.86581217 65.75722951 181.91479528 62 185 C61.07316406 185.76441406 60.14632812 186.52882813 59.19140625 187.31640625 C34.18137789 207.47946794 2.06977444 221.68733951 -30.35180664 221.39111328 C-32.43377396 221.37502879 -34.51379374 221.39107636 -36.59570312 221.41015625 C-61.69484394 221.44959191 -86.42589008 213.51881064 -104.45703125 195.609375 C-105.29621094 194.74828125 -106.13539063 193.8871875 -107 193 C-107.66386719 192.34515625 -108.32773437 191.6903125 -109.01171875 191.015625 C-128.19610045 170.83969098 -131.97894427 142.07284832 -131.40625 115.53515625 C-129.93076546 79.72237996 -115.75255639 45.91515751 -89.22265625 21.4375 C-65.65322305 1.12009109 -30.61126633 -13.05164792 0 0 Z " fill="#CB6CE6" transform="translate(731,484)"/>
</svg>
